<?xml version="1.0" standalone="no"?><!DOCTYPE svg PUBLIC "-//W3C//DTD SVG 1.1//EN" "http://www.w3.org/Graphics/SVG/1.1/DTD/svg11.dtd"><svg t="1574261002897" class="icon" viewBox="0 0 1024 1024" version="1.1" xmlns="http://www.w3.org/2000/svg" p-id="2048" xmlns:xlink="http://www.w3.org/1999/xlink" width="200" height="200"><defs><style type="text/css"></style></defs><path d="M241.2544 113.7664h541.5936c70.0416 0 127.3856 57.4464 127.3856 127.6928v413.3888S884.736 651.6736 770.048 613.376c-31.8464-11.1616-74.8544-27.136-122.6752-44.6464 28.672-49.4592 50.9952-106.9056 66.8672-167.6288h-157.696v-55.9104h192.7168v-31.9488H556.6464v-94.208h-78.0288c-14.336 0-14.336 14.336-14.336 14.336v81.408H269.9264v31.9488h194.3552v54.272H303.3088v31.9488h312.2176c-11.1616 39.936-27.0336 76.5952-44.6464 110.08-100.352-33.4848-208.6912-60.6208-277.1968-43.1104-43.008 11.1616-71.68 30.3104-87.6544 49.4592C131.1744 640.3072 185.344 779.1616 343.04 779.1616c94.0032 0 184.7296-52.6336 254.8736-138.8544 105.1648 51.0976 312.2176 137.216 312.2176 137.216v4.8128c0 70.2464-57.344 127.6928-127.3856 127.6928H241.2544c-70.0416 0-127.3856-57.4464-127.3856-127.6928V241.4592c-0.1024-70.2464 57.2416-127.6928 127.3856-127.6928z m66.8672 432.5376c73.3184-7.9872 141.7216 20.7872 223.0272 60.6208-58.9824 73.4208-130.6624 119.7056-202.3424 119.7056-124.2112 0-160.8704-97.3824-98.7136-151.6544 20.6848-17.5104 57.344-27.0336 78.0288-28.672z" fill="#323233" p-id="2049"></path></svg>